<svg xmlns="http://www.w3.org/2000/svg" width="24" height="24" viewBox="0 0 24 24">
    <g fill="none" fill-rule="evenodd">
        <g fill="#EB0055">
            <g>
                <path d="M11.614 8.25c.288.004.431.155.431.455 0 .299-.143.45-.431.454h-4.75v8.182h7.772v-5c0-.303.144-.455.432-.455.288 0 .432.152.432.455v5.454c0 .251-.193.455-.432.455H6.432c-.239 0-.432-.204-.432-.455v-9.09c0-.251.193-.455.432-.455h5.182zm2.979-2.999l.08.002 2.86.343c.203.025.363.192.386.405l.328 2.993c.028.253-.145.48-.386.51-.24.028-.458-.153-.486-.405l-.23-2.088-5.627 5.89c-.171.18-.449.18-.62 0-.172-.179-.172-.47 0-.65l5.595-5.855-1.92-.23c-.215-.026-.375-.209-.389-.426l.002-.083c.028-.252.245-.433.486-.404z" transform="translate(-118 -256) translate(118 256)"/>
            </g>
        </g>
    </g>
</svg>
