<svg xmlns="http://www.w3.org/2000/svg" width="215" height="89" viewBox="0 0 215 89">
    <g fill="none" fill-rule="evenodd">
        <g>
            <g>
                <path d="M0 0H213.341V88.894H0z" transform="translate(-613 -886) translate(613.08 886)"/>
                <g fill="#870087" fill-rule="nonzero">
                    <path d="M53.825 21.61c1.091-.672 1.936-1.616 2.534-2.834.599-1.215.898-2.625.898-4.227 0-1.621-.304-3.055-.912-4.3-.61-1.246-1.468-2.21-2.578-2.893-1.11-.683-2.39-1.024-3.837-1.024-1.043 0-1.983.213-2.823.64-.84.424-1.54 1.042-2.1 1.854V6.482h-4.46v21.713h4.46v-8.067c.579.81 1.289 1.429 2.128 1.853.84.425 1.8.638 2.882.638 1.448 0 2.717-.336 3.808-1.009zm-7.733-4.004c-.723-.81-1.085-1.879-1.085-3.205 0-1.285.362-2.338 1.085-3.16.725-.82 1.656-1.23 2.795-1.23s2.067.41 2.78 1.23c.715.822 1.071 1.875 1.071 3.16 0 1.306-.356 2.37-1.07 3.19-.714.82-1.642 1.23-2.78 1.23-1.14 0-2.071-.405-2.796-1.215zm55.358 1.38c-.358.206-.835.31-1.433.31-.87 0-1.792-.173-2.766-.52-.976-.344-1.859-.834-2.65-1.466l-1.448 3.084c.868.713 1.891 1.261 3.069 1.646 1.177.387 2.404.579 3.678.579 1.854 0 3.374-.44 4.561-1.32 1.188-.88 1.782-2.111 1.782-3.693 0-1.048-.262-1.894-.782-2.538-.522-.642-1.14-1.127-1.854-1.452-.715-.326-1.622-.658-2.723-.995-1.004-.296-1.727-.563-2.171-.8-.444-.238-.668-.574-.668-1.01 0-.394.166-.69.493-.89.33-.196.764-.296 1.304-.296.656 0 1.4.134 2.23.401.83.266 1.67.648 2.519 1.142l1.535-3.114c-.868-.573-1.834-1.015-2.896-1.321-1.062-.306-2.124-.459-3.184-.459-1.777 0-3.244.435-4.403 1.304-1.159.87-1.737 2.097-1.737 3.68 0 1.028.25 1.864.753 2.506.501.643 1.105 1.122 1.81 1.438.704.317 1.588.634 2.65.95 1.003.297 1.732.575 2.186.83.452.257.68.613.68 1.068 0 .416-.178.726-.535.935zM40.546 51.351h4.46V29.341h-4.46v22.011zm-8.212-8.069c0 1.186-.308 2.156-.927 2.907-.617.753-1.457 1.138-2.519 1.157-.907 0-1.62-.286-2.143-.86-.52-.572-.783-1.365-.783-2.373v-8.722h-4.459v10.027c0 1.88.507 3.368 1.522 4.465 1.013 1.097 2.378 1.646 4.097 1.646 2.412 0 4.15-.997 5.212-2.995v2.817h4.432v-15.96h-4.432v7.891zm-18.2 3.456c-.937.445-1.858.669-2.765.669-1.14 0-2.182-.292-3.128-.876-.947-.584-1.69-1.375-2.23-2.374-.542-.998-.811-2.1-.811-3.308 0-1.205.27-2.304.81-3.291.541-.99 1.284-1.771 2.23-2.345.947-.574 1.99-.86 3.129-.86.944 0 1.886.242 2.822.726.937.487 1.752 1.153 2.448 2.003l2.663-3.353c-1.004-1.068-2.219-1.912-3.648-2.535-1.428-.623-2.876-.934-4.345-.934-2.007 0-3.836.464-5.486 1.393-1.65.93-2.95 2.206-3.895 3.828-.946 1.621-1.42 3.431-1.42 5.428 0 2.018.464 3.848 1.39 5.488.928 1.642 2.202 2.933 3.824 3.871 1.62.94 3.426 1.41 5.415 1.41 1.466 0 2.928-.336 4.387-1.01 1.458-.67 2.726-1.581 3.808-2.729l-2.693-2.995c-.734.75-1.57 1.35-2.505 1.794zm41.742.965c-.946 0-1.42-.613-1.42-1.84v-6.586h4.228v-3.174h-4.228v-4.39h-4.43v4.39h-2.173v3.146h2.174v7.386c0 1.582.453 2.798 1.36 3.649.907.85 2.086 1.275 3.533 1.275.715 0 1.424-.093 2.128-.282.704-.188 1.347-.46 1.926-.815l-.926-3.353c-.792.396-1.516.594-2.172.594zm28.687-9.435v-2.877h-4.46v15.96h4.46v-7.684c0-1.264.4-2.279 1.202-3.04.8-.761 1.887-1.142 3.257-1.142.31 0 .54.011.695.03v-4.302c-1.158.02-2.17.287-3.04.801-.869.515-1.573 1.266-2.114 2.254zm14.005-3.025c-1.563 0-2.954.341-4.17 1.024-1.216.682-2.161 1.64-2.837 2.877-.676 1.236-1.014 2.665-1.014 4.286 0 1.603.334 3.016 1 4.243.665 1.227 1.611 2.176 2.838 2.848 1.225.672 2.659 1.008 4.3 1.008 1.39 0 2.65-.241 3.779-.726 1.13-.485 2.09-1.182 2.881-2.092L103 46.28c-.54.555-1.149.974-1.823 1.261-.677.287-1.381.43-2.116.43-1.003 0-1.862-.282-2.576-.844-.715-.565-1.197-1.35-1.448-2.359h11.178c.02-.257.029-.623.029-1.099 0-2.65-.652-4.717-1.954-6.2-1.303-1.483-3.211-2.224-5.721-2.224zm-3.62 6.824c.176-1.068.586-1.914 1.232-2.538.647-.622 1.453-.934 2.417-.934 1.023 0 1.845.317 2.462.95.619.632.945 1.473.985 2.522H94.95zm-22.913 1.215c0 1.186-.309 2.156-.928 2.907-.617.753-1.457 1.138-2.518 1.157-.907 0-1.621-.286-2.143-.86-.52-.572-.783-1.365-.783-2.373v-8.722h-4.46v10.027c0 1.88.507 3.368 1.522 4.465 1.013 1.097 2.378 1.646 4.098 1.646 2.412 0 4.15-.997 5.212-2.995v2.817h4.431v-15.96h-4.431v7.891zm13.732-24.298c-.357.207-.835.312-1.434.312-.868 0-1.79-.174-2.765-.52-.976-.345-1.858-.835-2.65-1.467l-1.448 3.084c.869.713 1.892 1.261 3.069 1.646 1.179.387 2.404.579 3.679.579 1.853 0 3.372-.44 4.56-1.32 1.189-.88 1.782-2.111 1.782-3.693 0-1.048-.26-1.894-.782-2.538-.521-.642-1.14-1.127-1.854-1.452-.714-.326-1.621-.658-2.72-.995-1.006-.296-1.73-.563-2.174-.8-.444-.238-.665-.574-.665-1.01 0-.394.163-.69.492-.89.327-.196.762-.296 1.303-.296.656 0 1.4.134 2.23.401.83.266 1.67.648 2.52 1.142l1.533-3.114c-.868-.573-1.833-1.015-2.895-1.321-1.063-.306-2.124-.459-3.186-.459-1.776 0-3.243.435-4.401 1.304-1.16.87-1.738 2.097-1.738 3.68 0 1.028.251 1.864.753 2.506.501.643 1.105 1.122 1.81 1.438.704.317 1.588.634 2.65.95 1.003.297 1.732.575 2.186.83.453.257.68.613.68 1.068 0 .416-.178.726-.535.935zM65.8 12.86c-1.892.02-3.354.45-4.388 1.291-1.032.84-1.549 2.013-1.549 3.515 0 1.484.484 2.684 1.448 3.605.965.918 2.27 1.38 3.91 1.38 1.08 0 2.037-.18 2.867-.535.83-.356 1.505-.87 2.026-1.543v1.869h4.374l-.03-10.414c-.019-1.799-.602-3.201-1.752-4.211-1.148-1.009-2.765-1.514-4.85-1.514-1.294 0-2.482.15-3.562.446-1.082.296-2.24.762-3.476 1.395l1.391 3.144c1.64-.93 3.186-1.395 4.634-1.395 1.062 0 1.867.234 2.417.698.55.464.826 1.122.826 1.972v.297h-4.286zm4.286 4.123c-.135.692-.54 1.268-1.217 1.72-.675.456-1.476.684-2.403.684-.754 0-1.347-.183-1.78-.55-.435-.365-.652-.855-.652-1.467 0-.633.208-1.093.622-1.38.415-.287 1.056-.43 1.926-.43h3.504v1.423zM133.126 15.192c.095.174.275.272.46.272.085 0 .17-.021.251-.065.253-.14.345-.457.206-.71l-3.666-6.669c-.14-.253-.457-.346-.71-.206-.253.139-.346.457-.206.71l3.665 6.668zM128.403 6.6c.095.173.274.271.46.271.085 0 .17-.021.25-.065.254-.14.346-.457.207-.71l-1.5-2.727c-.137-.252-.456-.345-.71-.206-.253.14-.344.457-.206.711l1.499 2.726zm9.786 12.595c.06.237.273.393.507.393.042 0 .086-.005.13-.016.28-.072.448-.357.376-.637L134.982 2.5c-.072-.28-.357-.449-.637-.376-.28.071-.448.357-.376.636l4.22 16.437zm-3.634-2.492c-.254.14-.346.458-.207.71l1.044 1.902c.096.173.274.271.459.271.086 0 .172-.02.252-.065.253-.138.345-.457.206-.71l-1.044-1.902c-.14-.253-.457-.345-.71-.206zm-1.905 3.738c.103.11.242.165.382.165.127 0 .256-.047.358-.141.21-.198.22-.53.023-.74L123.876 9.57c-.197-.21-.529-.22-.739-.023-.21.198-.221.529-.024.74l9.537 10.155zm10.898-.869c.043.011.087.016.13.016.233 0 .445-.156.507-.393l3.964-15.443c.073-.28-.096-.565-.376-.637-.28-.072-.565.097-.637.377l-3.965 15.443c-.072.28.097.565.377.637zM129.28 34.895c.074 0 .15-.016.222-.05l2.206-1.038c.261-.123.373-.435.25-.697-.123-.26-.434-.373-.696-.25l-2.205 1.038c-.262.123-.373.435-.252.696.09.19.279.3.475.3zm2.205-8.756c.22 0 .426-.14.497-.362.09-.274-.06-.57-.335-.659l-10.25-3.33c-.274-.089-.569.061-.658.336-.09.275.061.57.336.66l10.249 3.33c.053.017.108.025.161.025zm-4.544 8.754l-5.679 2.673c-.262.123-.374.435-.251.696.09.19.277.3.473.3.075 0 .15-.015.223-.05l5.68-2.672c.261-.123.373-.434.25-.696-.123-.261-.435-.374-.696-.25zM132 30.521c-.055-.284-.329-.47-.612-.416l-15.739 3.002c-.284.055-.47.328-.416.612.048.251.267.425.513.425.033 0 .066-.003.099-.009l15.74-3.002c.283-.055.47-.329.415-.612zm-7.458-2.276l6.912.435h.033c.273 0 .504-.212.52-.49.02-.288-.2-.536-.488-.554l-6.911-.435c-.288-.018-.536.2-.555.489-.018.288.201.537.49.555zm25.84-5.308c.1.156.268.242.441.242.096 0 .194-.026.28-.08l13.274-8.428c.244-.155.316-.478.162-.722-.155-.244-.478-.316-.722-.161l-13.274 8.427c-.244.155-.316.478-.161.722zm10.55-.584c-.089-.275-.384-.426-.659-.336l-9.546 3.101c-.274.09-.425.385-.335.66.071.22.277.361.497.361.054 0 .109-.008.162-.026l9.545-3.101c.275-.09.425-.385.336-.66zm-10.076 5.283c-.288.018-.507.266-.488.554.016.278.247.49.521.49h.033l5.721-.36c.29-.018.508-.267.49-.555-.018-.288-.267-.508-.555-.49l-5.722.36zm-.19 6.17l10.002 4.707c.072.034.147.05.222.05.196 0 .384-.111.474-.301.122-.261.01-.573-.251-.696L151.11 32.86c-.26-.123-.573-.01-.696.25-.124.262-.01.574.25.697zm-4.397-14.281c.08.043.166.064.252.064.185 0 .364-.098.458-.27l3.103-5.645c.14-.253.048-.572-.206-.71-.253-.14-.57-.048-.71.206l-3.103 5.644c-.14.253-.047.571.206.71zm-14.437 2.687l-2.271-1.442c-.245-.155-.568-.083-.722.161-.155.244-.083.568.16.722l2.273 1.442c.086.055.183.081.279.081.174 0 .342-.085.442-.242.155-.244.082-.567-.161-.722zm30.893-.441c.071.22.276.361.497.361.054 0 .108-.009.161-.026l3.662-1.19c.274-.089.424-.384.335-.659-.09-.274-.384-.424-.66-.335l-3.66 1.19c-.274.089-.425.383-.335.659zm-11.348-3.854c.101.095.23.142.358.142.14 0 .279-.056.382-.165l4.875-5.192c.198-.21.188-.541-.023-.74-.211-.197-.542-.187-.74.024l-4.875 5.192c-.198.21-.187.541.023.74zm-.898.957c-.21-.197-.542-.187-.74.024l-.778.827c-.199.21-.188.542.022.74.1.095.23.141.359.141.139 0 .278-.055.38-.165l.78-.828c.198-.21.188-.54-.023-.739zm.258-7.477c.08.044.167.065.252.065.185 0 .364-.098.459-.272l3.743-6.809c.14-.253.047-.57-.206-.71-.253-.139-.571-.047-.71.206l-3.744 6.81c-.139.253-.047.57.206.71zm-2.998 26.386c-.234.17-.286.497-.116.73l2.789 3.841c.102.14.262.216.423.216.107 0 .214-.033.308-.1.234-.17.284-.498.115-.73l-2.79-3.842c-.168-.233-.496-.285-.73-.115zm10.612-26.77c.14 0 .28-.055.381-.164l2.777-2.957c.198-.21.187-.542-.023-.74-.21-.197-.542-.187-.74.023l-2.776 2.958c-.198.21-.187.541.023.739.101.095.23.142.358.142zm-39.696 4.075l8.403 5.333c.087.055.184.081.28.081.172 0 .342-.086.442-.243.154-.244.083-.567-.162-.722l-8.402-5.332c-.244-.155-.567-.082-.722.16-.155.245-.083.568.161.723zm32.36 37.08c-.107-.27-.411-.401-.679-.295-.269.107-.4.41-.294.68l1.01 2.55c.081.205.278.33.486.33.064 0 .13-.012.193-.037.268-.106.4-.41.293-.679l-1.01-2.55zm-4.817-12.166l-.683-1.725c-.106-.268-.41-.4-.678-.294-.27.107-.4.41-.295.68l.683 1.724c.082.205.279.33.487.33.064 0 .129-.01.193-.036.267-.107.4-.41.293-.679zm-2.568 8.105c.287-.037.49-.298.454-.585l-1.152-9.118c-.036-.286-.297-.49-.584-.453-.287.036-.49.298-.454.585l1.152 9.117c.034.265.258.458.518.458.023 0 .045-.002.066-.004zm.184 1.45c-.287.037-.49.298-.453.585l.673 5.328c.033.265.258.458.518.458.022 0 .044-.001.066-.004.287-.037.49-.298.454-.585l-.673-5.328c-.037-.286-.299-.49-.585-.453zm6.825-13.647c-.222-.184-.551-.153-.736.07-.184.222-.153.552.07.736l11.181 9.249c.098.08.216.12.333.12.15 0 .3-.065.404-.19.184-.223.153-.552-.07-.736l-11.182-9.249zm18.632-9.433l-10.414.655c-.288.018-.507.267-.49.555.018.277.249.49.522.49h.034l10.415-.656c.287-.018.506-.267.488-.555-.018-.288-.266-.507-.555-.489zm-1.76 6.78l-16.523-3.152c-.284-.054-.558.132-.613.416-.054.283.133.557.416.612l16.525 3.151c.033.007.066.01.098.01.247 0 .466-.175.514-.425.054-.283-.133-.558-.416-.612zM141.188.128c-.289 0-.524.235-.524.524v3.955c0 .289.235.523.524.523.288 0 .523-.234.523-.523V.652c0-.29-.235-.524-.523-.524zm11.942 44.188c-.17-.234-.497-.286-.73-.116-.234.17-.286.497-.116.73l3.904 5.373c.102.142.261.216.423.216.107 0 .214-.032.307-.1.234-.17.286-.496.116-.73l-3.904-5.373zm13.975-3.93l-3.66-1.723c-.261-.123-.573-.01-.696.25-.124.262-.012.574.25.697l3.661 1.723c.073.033.148.05.222.05.197 0 .385-.112.474-.301.123-.262.01-.573-.25-.696zm-19.94 2.058c-.107-.269-.41-.4-.68-.294-.268.107-.399.41-.293.679l2.801 7.076c.082.205.279.33.487.33.065 0 .13-.012.192-.037.27-.106.4-.41.294-.679l-2.801-7.075zm-14.69-6.467c-.183-.223-.513-.254-.736-.07l-10.835 8.962c-.223.185-.254.514-.07.737.104.125.253.19.404.19.117 0 .235-.04.332-.12l10.836-8.963c.222-.183.254-.514.07-.736zm-13.354 2.597l-3.597 1.692c-.262.123-.373.435-.25.696.089.19.277.3.473.3.075 0 .15-.016.222-.05l3.598-1.692c.261-.123.373-.434.25-.696-.123-.261-.435-.373-.696-.25zm3.108-10.476c.274 0 .504-.213.521-.49.019-.288-.2-.537-.489-.555l-9.157-.576c-.289-.018-.537.201-.555.49-.018.287.201.536.49.554l9.157.576.033.001zm-7.944-7.52l4.408 1.431c.054.018.108.026.162.026.22 0 .425-.14.497-.362.09-.275-.061-.57-.336-.659l-4.407-1.432c-.275-.09-.57.061-.66.336-.088.275.062.57.336.66zm12.457 27.184l-2.504 3.446c-.17.233-.118.56.115.73.093.068.201.1.307.1.162 0 .322-.075.425-.216l2.503-3.445c.17-.234.118-.561-.116-.731-.233-.17-.56-.118-.73.116zm7.895-9.979c-.234-.17-.56-.118-.73.116l-5.65 7.777c-.17.233-.118.56.116.73.093.068.2.1.307.1.161 0 .321-.075.423-.215l5.65-7.777c.17-.234.118-.561-.116-.73zm2.902.2c-.269-.106-.573.026-.679.294l-2.234 5.645c-.107.268.025.572.293.679.063.024.128.037.193.037.208 0 .404-.126.485-.331l2.236-5.645c.106-.268-.025-.572-.294-.679zm2.489-.032c-.287-.036-.549.167-.585.453l-2.327 18.415c-.036.287.167.548.454.585.022.002.045.004.067.004.26 0 .484-.193.517-.458l2.327-18.414c.036-.287-.167-.55-.453-.585zm1.16-30.202c-.289 0-.524.234-.524.523v10.794c0 .289.235.523.524.523.288 0 .523-.234.523-.523V8.272c0-.289-.235-.523-.523-.523zm-6.904 38.455c-.268-.106-.572.025-.679.294l-3.254 8.22c-.107.268.025.572.294.678.063.025.128.037.192.037.208 0 .405-.125.486-.33l3.255-8.22c.107-.27-.025-.573-.294-.68z" transform="translate(-613 -886) translate(613.08 886) translate(21.503 15.53)"/>
                </g>
            </g>
        </g>
    </g>
</svg>
