<svg xmlns="http://www.w3.org/2000/svg" viewBox="0 0 424 424">
    <defs>
        <linearGradient id="i7za34fvca" x1="0%" x2="100%" y1="0%" y2="100%">
            <stop offset="0%" stop-color="#EB0055"/>
            <stop offset="100%" stop-color="#320096"/>
        </linearGradient>
    </defs>
    <g fill="none" fill-rule="evenodd">
        <g>
            <g transform="translate(-508 -161) translate(508 161)">
                <g fill="#870087" fill-rule="nonzero" opacity=".159">
                    <g>
                        <path d="M151.832 111.225c.7 1.281 2.025 2.004 3.384 2.004.633 0 1.265-.155 1.858-.478 1.863-1.027 2.546-3.371 1.519-5.238l-27.031-49.167c-1.028-1.867-3.372-2.55-5.234-1.523-1.867 1.028-2.55 3.372-1.523 5.239l27.027 49.163zm-34.824-63.343c.7 1.277 2.021 2 3.384 2 .633 0 1.265-.155 1.85-.478 1.87-1.028 2.555-3.372 1.527-5.238l-11.054-20.102c-1.019-1.863-3.371-2.546-5.234-1.519-1.87 1.024-2.546 3.368-1.522 5.239l11.049 20.098zm72.15 92.868c.448 1.742 2.018 2.899 3.738 2.899.314 0 .637-.039.964-.12 2.06-.534 3.303-2.633 2.774-4.697L165.513 17.638c-.525-2.06-2.628-3.307-4.693-2.774-2.064.53-3.307 2.632-2.774 4.692L189.16 140.75zm-26.794-18.373c-1.866 1.023-2.546 3.372-1.522 5.238l7.698 14.017c.706 1.277 2.022 2 3.38 2 .633 0 1.27-.151 1.859-.478 1.866-1.023 2.546-3.372 1.518-5.238l-7.694-14.021c-1.028-1.867-3.372-2.546-5.239-1.518zm-14.042 27.56c.757.808 1.785 1.217 2.813 1.217.942 0 1.892-.349 2.64-1.045 1.549-1.458 1.626-3.901.173-5.454L83.633 69.777c-1.458-1.552-3.9-1.63-5.45-.172-1.556 1.458-1.633 3.897-.175 5.454l70.314 74.878zm80.349-6.409c.322.082.645.12.959.12 1.72 0 3.285-1.156 3.737-2.898L262.6 26.885c.533-2.064-.71-4.168-2.774-4.697-2.065-.529-4.168.714-4.7 2.779l-29.234 113.865c-.529 2.064.718 4.163 2.779 4.696zm-105.2 112.966c.551 0 1.106-.116 1.64-.37l16.265-7.65c1.927-.908 2.749-3.205 1.845-5.136-.907-1.922-3.204-2.753-5.13-1.845l-16.262 7.651c-1.931.908-2.753 3.209-1.854 5.131.658 1.398 2.052 2.22 3.497 2.22zm16.262-64.555c1.622 0 3.14-1.037 3.665-2.667.662-2.026-.448-4.202-2.473-4.86l-75.566-24.55c-2.026-.657-4.202.448-4.86 2.474-.658 2.026.451 4.202 2.477 4.86l75.566 24.553c.391.13.796.19 1.191.19zm-33.503 64.547l-41.873 19.706c-1.931.908-2.757 3.204-1.854 5.131.662 1.398 2.047 2.215 3.492 2.215.55 0 1.11-.116 1.643-.366l41.873-19.706c1.931-.907 2.753-3.204 1.85-5.13-.908-1.928-3.209-2.758-5.131-1.85zm37.292-32.24c-.404-2.094-2.425-3.466-4.511-3.066L22.965 243.317c-2.094.4-3.47 2.417-3.066 4.511.353 1.85 1.97 3.135 3.78 3.135.241 0 .486-.025.727-.068l116.05-22.137c2.09-.4 3.466-2.421 3.066-4.511zm-54.986-16.781l50.956 3.208c.082.004.16.004.246.004 2.017 0 3.716-1.57 3.84-3.612.138-2.125-1.475-3.957-3.604-4.09l-50.956-3.205c-2.12-.137-3.953 1.48-4.09 3.605-.134 2.124 1.483 3.956 3.608 4.09zm190.515-39.138c.735 1.157 1.978 1.79 3.255 1.79.71 0 1.428-.194 2.065-.599l97.87-62.134c1.798-1.14 2.331-3.522 1.191-5.324-1.14-1.798-3.522-2.327-5.32-1.188l-97.87 62.135c-1.798 1.14-2.331 3.522-1.191 5.32zm77.79-4.305c-.655-2.026-2.83-3.136-4.857-2.477l-70.383 22.867c-2.026.658-3.135 2.834-2.473 4.86.525 1.63 2.039 2.667 3.664 2.667.396 0 .8-.06 1.192-.19l70.379-22.867c2.03-.658 3.135-2.834 2.477-4.86zm-74.29 38.953c-2.124.133-3.741 1.965-3.604 4.09.125 2.043 1.824 3.612 3.845 3.612.078 0 .164 0 .241-.004l42.187-2.658c2.13-.129 3.742-1.961 3.604-4.09-.129-2.125-1.965-3.742-4.085-3.608l-42.187 2.658zm-1.402 45.498l73.743 34.7c.529.249 1.084.365 1.638.365 1.446 0 2.83-.817 3.493-2.215.903-1.927.081-4.223-1.85-5.13l-73.738-34.7c-1.922-.908-4.223-.077-5.13 1.845-.912 1.931-.078 4.228 1.844 5.135zm-32.42-105.302c.59.323 1.226.478 1.854.478 1.364 0 2.684-.723 3.38-2l22.881-41.62c1.028-1.862.349-4.21-1.518-5.234-1.866-1.028-4.21-.348-5.238 1.523l-22.88 41.615c-1.029 1.866-.345 4.21 1.522 5.238zm-106.45 19.814l-16.743-10.631c-1.802-1.144-4.184-.611-5.32 1.187-1.144 1.797-.61 4.184 1.183 5.324l16.752 10.632c.636.404 1.354.598 2.06.598 1.281 0 2.524-.633 3.26-1.79 1.14-1.797.606-4.18-1.192-5.32zm227.778-3.255c.529 1.63 2.038 2.666 3.664 2.666.4 0 .8-.064 1.191-.193l27.001-8.77c2.021-.658 3.127-2.834 2.469-4.86-.658-2.026-2.83-3.13-4.86-2.473l-26.992 8.77c-2.022.658-3.131 2.83-2.473 4.86zm-83.665-28.412c.744.697 1.695 1.045 2.64 1.045 1.025 0 2.052-.408 2.814-1.217l35.942-38.277c1.462-1.553 1.385-3.992-.168-5.454-1.557-1.458-3.995-1.38-5.449.172l-35.95 38.282c-1.459 1.553-1.381 3.991.171 5.45zm-6.623 7.058c-1.553-1.458-3.996-1.385-5.454.172l-5.741 6.098c-1.462 1.553-1.385 3.996.163 5.454.744.701 1.695 1.045 2.645 1.045 1.028 0 2.052-.409 2.809-1.217l5.75-6.103c1.458-1.553 1.38-3.991-.172-5.45zm1.905-55.133c.59.327 1.226.478 1.854.478 1.363 0 2.684-.723 3.385-2l27.598-50.204c1.028-1.867.344-4.21-1.518-5.238-1.867-1.024-4.21-.344-5.238 1.522l-27.603 50.204c-1.024 1.866-.344 4.21 1.522 5.238zm-22.11 194.545c-1.725 1.251-2.108 3.664-.852 5.384l20.562 28.322c.753 1.036 1.931 1.59 3.123 1.59.782 0 1.578-.24 2.266-.739 1.725-1.251 2.1-3.664.852-5.385l-20.567-28.32c-1.247-1.721-3.66-2.104-5.384-.852zm78.25-197.37c1.027 0 2.055-.409 2.808-1.217l20.476-21.797c1.458-1.553 1.376-3.996-.172-5.454-1.553-1.458-3.996-1.38-5.454.168L335 73.923c-1.458 1.553-1.38 3.992.168 5.45.748.7 1.695 1.045 2.645 1.045zM45.127 110.459l61.958 39.318c.636.405 1.354.603 2.06.603 1.273 0 2.524-.637 3.26-1.794 1.14-1.798.61-4.18-1.192-5.324l-61.949-39.314c-1.798-1.14-4.18-.607-5.324 1.187-1.14 1.802-.611 4.184 1.187 5.324zm238.59 273.388c-.784-1.979-3.029-2.95-5.003-2.168-1.982.787-2.954 3.028-2.172 5.006l7.45 18.808c.601 1.514 2.05 2.434 3.586 2.434.473 0 .955-.086 1.42-.27 1.978-.784 2.946-3.024 2.163-5.007l-7.445-18.803zm-35.513-89.694l-5.036-12.718c-.779-1.978-3.024-2.95-5.002-2.168-1.983.787-2.95 3.028-2.172 5.006l5.036 12.718c.602 1.514 2.056 2.439 3.591 2.439.47 0 .95-.086 1.42-.271 1.974-.787 2.95-3.028 2.163-5.006zm-18.932 59.756c2.116-.271 3.612-2.198 3.341-4.31l-8.49-67.226c-.266-2.112-2.193-3.613-4.305-3.342-2.116.262-3.612 2.193-3.346 4.31l8.495 67.221c.245 1.953 1.9 3.377 3.819 3.377.163 0 .327-.013.486-.03zm1.354 10.7c-2.116.262-3.612 2.193-3.341 4.31l4.963 39.28c.245 1.952 1.905 3.375 3.819 3.375.16 0 .327-.008.49-.03 2.112-.266 3.609-2.198 3.342-4.31l-4.959-39.283c-.27-2.112-2.202-3.609-4.314-3.342zm50.325-100.627c-1.639-1.359-4.069-1.131-5.428.512-1.36 1.643-1.131 4.073.512 5.428l82.443 68.194c.722.598 1.591.886 2.456.886 1.11 0 2.21-.478 2.976-1.398 1.354-1.643 1.127-4.073-.516-5.432l-82.443-68.19zm137.373-69.549l-76.783 4.83c-2.125.133-3.742 1.965-3.608 4.09.129 2.043 1.827 3.617 3.845 3.617.086 0 .163-.004.249-.009l76.787-4.83c2.12-.133 3.738-1.97 3.604-4.094-.137-2.124-1.96-3.737-4.094-3.604zm-12.971 49.989L283.519 221.18c-2.094-.4-4.111.972-4.516 3.067-.395 2.09.977 4.111 3.067 4.511l121.839 23.238c.245.047.486.073.726.073 1.815 0 3.432-1.29 3.785-3.136.4-2.09-.976-4.111-3.066-4.511zM211.265.16c-2.129 0-3.862 1.728-3.862 3.857v29.164c0 2.13 1.733 3.854 3.862 3.854 2.125 0 3.854-1.725 3.854-3.854V4.017c0-2.129-1.73-3.857-3.854-3.857zm88.051 325.797c-1.251-1.724-3.664-2.103-5.389-.851-1.72 1.251-2.103 3.664-.851 5.384l28.785 39.615c.753 1.041 1.927 1.592 3.118 1.592.787 0 1.579-.241 2.267-.74 1.725-1.251 2.107-3.66.852-5.385l-28.782-39.615zm103.04-28.974l-26.988-12.7c-1.927-.908-4.228-.083-5.13 1.844-.913 1.931-.087 4.228 1.844 5.135l26.992 12.7c.534.25 1.089.37 1.639.37 1.45 0 2.834-.82 3.492-2.219.908-1.926.078-4.223-1.849-5.13zm-147.024 15.173c-.783-1.979-3.024-2.95-5.007-2.168-1.978.787-2.946 3.028-2.163 5.006l20.653 52.174c.602 1.514 2.051 2.439 3.587 2.439.477 0 .954-.09 1.419-.276 1.983-.782 2.95-3.023 2.167-5.006l-20.656-52.17zm-108.304-47.68c-1.355-1.642-3.79-1.87-5.432-.511l-79.884 66.074c-1.643 1.359-1.875 3.789-.516 5.432.76.92 1.862 1.398 2.976 1.398.86 0 1.733-.293 2.451-.886l79.893-66.079c1.638-1.354 1.87-3.789.512-5.427zM48.564 283.62L22.045 296.1c-1.931.908-2.753 3.205-1.85 5.132.659 1.398 2.048 2.215 3.493 2.215.555 0 1.11-.12 1.639-.37L51.85 290.6c1.927-.907 2.752-3.204 1.845-5.13-.908-1.928-3.209-2.753-5.131-1.85zm22.915-77.235c2.021 0 3.716-1.57 3.845-3.617.133-2.124-1.48-3.957-3.609-4.09l-67.514-4.245c-2.13-.138-3.961 1.48-4.095 3.604-.133 2.125 1.484 3.961 3.609 4.095l67.519 4.245c.081.004.163.008.245.008zM12.91 150.93l32.497 10.559c.396.129.796.189 1.192.189 1.62 0 3.14-1.037 3.668-2.667.658-2.025-.451-4.202-2.477-4.86l-32.497-10.558c-2.026-.658-4.202.451-4.86 2.477-.654 2.026.451 4.202 2.477 4.86zm91.84 200.437l-18.459 25.405c-1.256 1.72-.869 4.133.852 5.384.683.5 1.48.74 2.262.74 1.195 0 2.374-.555 3.13-1.591l18.456-25.405c1.251-1.725.869-4.138-.856-5.39-1.72-1.25-4.133-.868-5.385.857zm58.217-73.575c-1.725-1.251-4.138-.869-5.385.856l-41.658 57.339c-1.252 1.72-.869 4.133.856 5.385.684.498 1.47.735 2.262.735 1.191 0 2.37-.55 3.122-1.587l41.654-57.339c1.256-1.725.873-4.137-.851-5.389zm21.392 1.475c-1.978-.782-4.22.19-5.002 2.168l-16.476 41.62c-.788 1.978.184 4.218 2.163 5.005.464.181.946.271 1.42.271 1.535 0 2.984-.924 3.582-2.438l16.48-41.62c.783-1.978-.184-4.219-2.167-5.006zm18.352-.236c-2.112-.267-4.043 1.23-4.31 3.342l-17.156 135.773c-.267 2.116 1.23 4.043 3.342 4.31.163.02.331.034.494.034 1.914 0 3.574-1.428 3.815-3.376l17.156-135.774c.267-2.116-1.23-4.047-3.341-4.31zm8.554-222.685c-2.129 0-3.862 1.729-3.862 3.858v79.587c0 2.129 1.733 3.858 3.862 3.858 2.125 0 3.854-1.73 3.854-3.858V60.204c0-2.13-1.73-3.858-3.854-3.858zM160.36 339.879c-1.974-.783-4.219.185-5.002 2.168l-23.994 60.603c-.787 1.983.185 4.223 2.163 5.006.465.185.946.271 1.42.271 1.535 0 2.989-.92 3.586-2.434l24-60.608c.782-1.982-.19-4.223-2.173-5.006z" transform="translate(.565 .763)"/>
                    </g>
                </g>
                <rect width="251" height="251" x="84.446" y="88.554" fill="url(#i7za34fvca)" rx="63"/>
                <g fill="#FFF">
                    <path d="M115.418 10.785c4.68 0 8.475 3.795 8.475 8.476v151.143c0 4.68-3.794 8.475-8.475 8.475H29.252c-4.68 0-8.475-3.794-8.475-8.475V19.26c0-4.681 3.794-8.476 8.475-8.476h86.166zM25.72 154.5v15.904c0 1.872 1.458 3.404 3.3 3.524l.232.007h86.166c1.872 0 3.404-1.457 3.524-3.299l.007-.232v-15.58l-93.23-.324zm89.698-138.77H29.252c-1.872 0-3.404 1.456-3.524 3.298l-.007.233-.001 14.457h73.119c1.355 0 2.453 1.265 2.453 2.826 0 1.482-.991 2.697-2.252 2.815l-.201.01h-73.12v110.187l93.23.323V19.261c0-1.873-1.457-3.405-3.3-3.524l-.231-.008zm-43.79 13.418c2.34 0 4.238-1.897 4.238-4.237s-1.897-4.238-4.237-4.238-4.238 1.897-4.238 4.238c0 2.34 1.897 4.237 4.238 4.237z" transform="translate(139.324 117.076) rotate(15 72.335 94.832)"/>
                </g>
            </g>
        </g>
    </g>
</svg>
